<svg width="81" height="80" viewBox="0 0 81 80" fill="none" xmlns="http://www.w3.org/2000/svg"><path d="M52.7886 53.6586H13.5202C9.76409 53.6586 6.69092 50.5854 6.69092 46.8293V18.8293C6.69092 15.0732 9.76409 12 13.5202 12H60.6422C64.3983 12 67.4715 15.0732 67.4715 18.8293V29.9269H55.8617C54.1544 29.9269 52.7886 31.2927 52.7886 33V53.6586ZM13.5202 14.7317C11.1299 14.7317 9.2519 16.6098 9.2519 19V46.8293C9.2519 49.2196 11.1299 51.0976 13.5202 51.0976H50.2276V33.1708C50.2276 29.9269 52.7886 27.3659 56.0325 27.3659H65.0813V18.8293C65.0813 16.439 63.2032 14.561 60.813 14.561H13.5202V14.7317Z" fill="#00E864"/><path d="M43.7399 68.0003H30.2521C29.057 68.0003 28.0326 67.3174 27.5204 66.293C27.0082 65.2686 27.0082 64.0735 27.6911 63.0491L29.2277 60.6588C29.7399 59.8052 30.7643 59.293 31.9594 59.293H42.2033C43.2277 59.293 44.2521 59.8052 44.935 60.6588L46.4716 63.0491C47.1545 64.0735 47.1545 65.2686 46.6424 66.293C45.9594 67.3174 44.935 68.0003 43.7399 68.0003ZM29.7399 64.4149C29.5692 64.5857 29.5692 64.9271 29.7399 64.9271C29.7399 65.0979 29.9106 65.2686 30.2521 65.2686H43.7399C44.0814 65.2686 44.2521 65.0979 44.2521 64.9271C44.2521 64.7564 44.4228 64.5857 44.2521 64.4149L42.7155 62.0247C42.5448 61.854 42.3741 61.8539 42.2033 61.8539H31.9594C31.7887 61.8539 31.6179 62.0247 31.4472 62.0247L29.7399 64.4149Z" fill="#00E864"/><path d="M38.2764 53.6587H35.7155V60.488H38.2764V53.6587Z" fill="#00E864"/><path d="M68.8374 67.9999H55.8618C52.6179 67.9999 50.0569 65.439 50.0569 62.195V33.1706C50.0569 29.9267 52.6179 27.3657 55.8618 27.3657H68.8374C72.0813 27.3657 74.6423 29.9267 74.6423 33.1706V62.195C74.6423 65.439 72.0813 67.9999 68.8374 67.9999ZM55.8618 29.9267C54.1545 29.9267 52.7886 31.2926 52.7886 32.9999V62.0243C52.7886 63.7316 54.1545 65.0975 55.8618 65.0975H68.8374C70.5447 65.0975 71.9106 63.7316 71.9106 62.0243V33.1706C71.9106 31.4633 70.5447 30.0974 68.8374 30.0974H55.8618V29.9267Z" fill="#00E864"/><path d="M64.2277 33.512H60.4716C59.9594 33.512 59.6179 33.1705 59.6179 32.6583C59.6179 32.1462 59.9594 31.8047 60.4716 31.8047H64.2277C64.7399 31.8047 65.0813 32.1462 65.0813 32.6583C65.2521 33.1705 64.9106 33.512 64.2277 33.512Z" fill="#00E864"/></svg>
