<svg width="80" height="80" viewBox="0 0 80 80" fill="none" xmlns="http://www.w3.org/2000/svg"><path d="M56.3417 72.0003H23.6594C19.661 72.0003 16.358 68.6973 16.358 64.6989V38.9703C16.358 34.9719 19.661 31.6689 23.6594 31.6689H56.3417C60.34 31.6689 63.643 34.9719 63.643 38.9703V64.6989C63.8169 68.6973 60.5139 72.0003 56.3417 72.0003ZM23.6594 34.4504C21.0518 34.4504 19.1395 36.5365 19.1395 38.9703V64.6989C19.1395 67.1327 21.2256 69.2188 23.6594 69.2188H56.3417C58.7754 69.2188 60.8615 67.1327 60.8615 64.6989V38.9703C60.8615 36.5365 58.7754 34.4504 56.3417 34.4504H23.6594Z" fill="#00E864"/><path d="M55.4724 33.0596H52.6909V23.6721C52.6909 16.7184 46.9542 10.9817 40.0005 10.9817C33.0468 10.9817 27.31 16.7184 27.31 23.6721V33.0596H24.5286V23.6721C24.5286 15.1539 31.4822 8.2002 40.0005 8.2002C48.5187 8.2002 55.4724 15.1539 55.4724 23.6721V33.0596Z" fill="#00E864"/><path d="M44.6943 52.1822L42.782 51.1392L44.6943 49.9223C45.3896 49.5746 45.5635 48.5315 45.2158 47.8362C44.8681 47.1408 43.825 46.9669 43.1297 47.3146L41.5651 48.3577V46.4454C41.5651 45.5762 40.8697 45.0547 40.1744 45.0547C39.3052 45.0547 38.7836 45.7501 38.7836 46.4454V48.7054L37.0452 47.6623C36.3498 47.3146 35.4806 47.4885 35.1329 48.1838C34.7853 48.8792 34.9591 49.7484 35.6545 50.0961L37.5667 51.1392L35.6545 52.356C34.9591 52.7037 34.7853 53.7468 35.1329 54.4421C35.4806 55.1375 36.5237 55.3114 37.219 54.9637L38.7836 53.9206V55.659C38.7836 56.5282 39.479 57.0498 40.1744 57.0498C41.0436 57.0498 41.5651 56.3544 41.5651 55.659V53.5729L43.3035 54.616C43.9989 54.9637 44.8681 54.7898 45.2158 54.0945C45.5635 53.5729 45.3896 52.7037 44.6943 52.1822Z" fill="#00E864"/></svg>
